<?xml version="1.0" standalone="no"?>
<!DOCTYPE svg PUBLIC "-//W3C//DTD SVG 20010904//EN"
 "http://www.w3.org/TR/2001/REC-SVG-20010904/DTD/svg10.dtd">
<svg version="1.0" xmlns="http://www.w3.org/2000/svg"
 width="775.000000pt" height="758.000000pt" viewBox="0 0 775.000000 758.000000"
 preserveAspectRatio="xMidYMid meet">

<g transform="translate(0.000000,758.000000) scale(0.100000,-0.100000)"
fill="#000000" stroke="none">
<path d="M3760 7381 c-35 -12 -128 -57 -175 -85 -48 -29 -88 -52 -135 -78 -19
-11 -56 -31 -81 -46 -25 -15 -79 -46 -120 -70 -41 -24 -92 -54 -114 -67 -22
-14 -53 -32 -70 -40 -16 -8 -48 -26 -70 -40 -22 -13 -53 -32 -70 -40 -16 -9
-46 -26 -66 -38 -21 -12 -75 -44 -120 -70 -46 -26 -102 -59 -124 -72 -22 -14
-53 -32 -70 -40 -16 -9 -48 -27 -70 -40 -22 -14 -51 -31 -65 -38 -14 -7 -51
-28 -83 -47 -105 -63 -131 -78 -174 -100 -23 -12 -59 -33 -80 -47 -20 -14 -46
-29 -57 -34 -12 -6 -39 -21 -61 -34 -22 -13 -56 -33 -75 -43 -35 -19 -168 -97
-238 -139 -20 -12 -50 -29 -67 -38 -16 -9 -51 -28 -76 -43 -25 -15 -79 -46
-120 -70 -41 -23 -81 -47 -89 -52 -8 -5 -49 -28 -90 -52 -41 -23 -88 -51 -105
-60 -16 -10 -42 -23 -57 -29 -16 -6 -28 -15 -28 -19 0 -5 -10 -12 -22 -16 -55
-17 -208 -136 -208 -162 0 -6 -6 -15 -13 -19 -14 -9 -28 -38 -51 -103 -15 -41
-16 -207 -14 -1735 3 -1828 0 -1715 55 -1792 13 -17 23 -34 23 -37 0 -5 57
-62 87 -86 11 -8 36 -24 56 -34 20 -11 37 -23 37 -28 0 -4 7 -8 16 -8 9 0 27
-9 41 -20 14 -11 31 -20 38 -20 6 0 20 -9 30 -20 10 -11 26 -20 35 -20 10 0
24 -7 31 -17 8 -9 28 -22 44 -30 31 -14 80 -41 155 -87 25 -15 59 -33 76 -41
17 -8 36 -21 44 -29 7 -9 20 -16 29 -16 10 0 27 -9 39 -20 12 -11 28 -20 36
-20 8 0 17 -4 20 -9 5 -8 37 -27 141 -87 37 -21 120 -67 146 -80 15 -8 32 -21
39 -29 7 -8 20 -15 30 -15 10 0 23 -7 30 -15 6 -8 22 -17 33 -21 12 -4 35 -17
50 -30 16 -13 35 -24 42 -24 7 0 20 -6 27 -13 7 -7 24 -18 38 -24 14 -7 48
-26 75 -43 28 -17 64 -37 81 -45 17 -8 36 -21 44 -29 7 -9 20 -16 29 -16 10 0
27 -9 39 -20 12 -11 26 -20 31 -20 6 0 35 -15 64 -34 53 -34 95 -58 172 -101
51 -28 111 -63 150 -86 17 -11 41 -24 55 -31 14 -7 38 -23 53 -35 16 -13 35
-23 42 -23 7 0 20 -6 27 -13 7 -7 27 -20 43 -29 17 -8 46 -24 65 -34 19 -10
49 -27 66 -39 17 -12 57 -34 88 -50 31 -15 56 -32 56 -37 0 -4 8 -8 18 -8 10
0 27 -8 38 -18 10 -9 30 -23 44 -29 14 -7 48 -26 75 -43 28 -17 61 -35 75 -41
13 -5 31 -15 38 -22 8 -6 45 -24 84 -39 94 -38 198 -39 293 -3 37 13 78 33 93
42 54 36 68 44 101 59 18 8 38 20 45 25 6 6 26 18 43 27 68 36 258 146 263
153 3 4 21 14 40 23 19 9 49 24 65 35 29 17 65 38 146 85 95 54 189 109 234
136 28 17 62 35 78 41 15 6 27 14 27 18 0 5 17 15 38 25 20 9 53 26 73 39 20
12 76 45 124 72 48 28 103 60 124 72 20 12 45 27 56 32 11 6 43 24 70 41 28
17 64 38 80 46 17 8 46 25 67 37 149 89 183 109 238 139 19 10 53 30 75 43 22
13 51 30 65 36 14 7 32 18 40 25 8 6 41 25 72 42 32 16 70 39 85 49 15 10 39
24 53 31 14 7 43 23 65 37 22 13 49 29 60 35 11 5 43 24 70 40 28 17 64 37 80
45 17 9 59 33 94 55 34 22 66 40 71 40 14 0 112 105 136 145 12 22 32 69 43
105 21 64 21 84 21 1701 0 1615 0 1637 -20 1700 -11 35 -31 81 -44 104 -29 48
-107 129 -144 148 -63 33 -97 53 -116 70 -11 9 -27 17 -37 17 -9 0 -22 7 -29
16 -8 8 -27 21 -44 29 -29 13 -82 44 -151 86 -16 11 -45 26 -64 35 -19 8 -40
22 -48 30 -8 8 -29 21 -46 29 -18 8 -45 23 -62 34 -16 10 -48 29 -70 41 -22
13 -58 34 -80 47 -22 12 -51 28 -65 35 -14 7 -55 32 -93 55 -37 24 -71 43 -75
43 -4 0 -18 9 -32 20 -14 11 -33 20 -42 20 -10 0 -18 4 -18 9 0 5 -19 18 -42
30 -24 11 -59 31 -80 43 -79 50 -144 86 -165 92 -13 4 -23 11 -23 16 0 4 -19
17 -42 29 -24 12 -61 33 -83 46 -22 13 -49 29 -60 35 -11 5 -42 24 -70 40 -27
16 -66 38 -85 48 -70 38 -86 47 -117 70 -17 12 -35 22 -40 22 -4 0 -19 9 -33
20 -14 11 -33 20 -42 20 -10 0 -18 4 -18 9 0 5 -19 18 -42 30 -42 20 -101 54
-163 92 -16 11 -45 26 -64 35 -19 8 -40 22 -48 30 -8 8 -29 21 -46 29 -33 15
-53 26 -99 57 -15 10 -32 18 -38 18 -6 0 -19 8 -30 18 -10 9 -47 32 -82 50
-35 18 -85 46 -113 63 -121 72 -154 83 -260 86 -55 1 -111 -2 -125 -6z m535
-2201 l240 -300 113 -35 112 -36 283 -375 c155 -207 284 -380 285 -385 2 -5
-17 -9 -42 -9 l-45 0 -236 311 c-129 171 -235 305 -235 298 0 -7 11 -29 24
-48 17 -27 26 -56 30 -111 l7 -75 -34 39 -33 39 -32 -19 c-18 -10 -32 -22 -32
-27 0 -23 71 -155 94 -177 45 -40 106 -153 106 -194 0 -35 -1 -36 -37 -36 -28
0 -66 16 -138 58 l-100 58 -6 129 c-9 173 -49 314 -103 360 l-36 30 6 67 7 67
-214 266 -214 266 -7 -63 c-11 -92 19 -195 73 -257 44 -49 52 -65 64 -121 l7
-35 -54 53 c-81 79 -117 71 -118 -26 0 -24 20 -62 75 -145 67 -100 77 -122 86
-181 6 -37 9 -70 6 -72 -3 -3 -18 17 -33 44 -16 27 -61 77 -101 111 l-71 61
-36 -17 c-20 -9 -36 -20 -36 -25 0 -5 12 -26 26 -48 l27 -40 -30 -119 -30
-120 28 -117 c16 -64 35 -127 44 -140 23 -36 18 -44 -26 -44 -41 0 -41 0 -71
68 -28 64 -33 69 -78 85 -26 9 -50 17 -53 17 -3 0 -10 -14 -16 -31 -10 -30
-13 -31 -48 -24 -21 3 -41 10 -44 13 -4 4 -17 39 -29 77 -21 65 -30 76 -113
155 -57 54 -109 93 -141 106 -28 12 -53 30 -57 40 -4 11 -10 31 -15 46 -5 15
-45 59 -89 97 l-80 70 -6 -27 c-12 -51 -9 -118 6 -138 8 -10 15 -37 15 -59 0
-37 3 -42 49 -68 38 -21 57 -41 84 -90 20 -34 34 -64 32 -66 -2 -2 -26 12 -52
31 -53 38 -139 71 -157 61 -6 -3 -28 -19 -48 -36 -34 -25 -38 -34 -38 -72 0
-42 -3 -46 -45 -71 -28 -16 -45 -33 -45 -45 0 -17 8 -19 64 -19 62 0 64 -1
105 -45 72 -79 88 -75 -320 -75 -210 0 -359 4 -357 9 2 5 68 88 148 185 131
158 150 177 195 194 48 19 55 26 200 235 83 119 152 216 155 216 3 0 43 -33
89 -74 46 -41 87 -75 91 -75 3 0 84 83 178 184 162 173 175 185 229 203 56 19
63 25 202 191 80 95 147 172 151 172 3 0 113 -135 245 -300z m-2063 -1646 c62
-44 82 -91 86 -201 l4 -93 -70 0 -69 0 -5 75 c-6 85 -24 115 -70 115 -15 0
-37 -9 -48 -20 -19 -19 -20 -33 -20 -324 0 -350 -1 -345 85 -336 40 4 49 25
53 125 l4 95 70 0 70 0 -3 -112 c-4 -101 -7 -118 -31 -160 -71 -120 -286 -126
-365 -10 -39 58 -45 123 -41 435 3 276 4 294 25 332 46 86 105 117 211 112 61
-3 80 -9 114 -33z m3221 25 c21 -6 56 -26 78 -46 64 -58 69 -90 69 -427 0
-164 -4 -307 -10 -327 -28 -100 -102 -152 -214 -152 -112 0 -192 53 -216 144
-7 26 -10 152 -8 357 l3 317 27 47 c49 82 160 118 271 87z m-2728 -21 c8 -37
145 -889 145 -904 0 -11 -17 -14 -74 -14 l-74 0 -12 73 c-6 39 -12 79 -13 87
-2 12 -20 16 -83 18 l-81 3 -12 -91 -13 -90 -69 0 c-59 0 -69 3 -69 18 0 18
136 860 145 900 5 21 10 22 105 22 95 0 100 -1 105 -22z m545 0 c75 -32 110
-102 110 -221 0 -95 -16 -150 -55 -190 l-33 -34 23 -13 c48 -26 59 -70 65
-260 3 -96 9 -181 13 -187 6 -10 -10 -13 -72 -13 -97 0 -89 -16 -93 197 -3
176 -9 188 -91 199 l-47 7 0 -202 0 -201 -75 0 -75 0 0 471 0 471 148 -4 c101
-3 158 -9 182 -20z m545 -5 c99 -51 108 -82 113 -388 6 -356 -10 -439 -91
-493 -39 -26 -46 -27 -204 -30 l-163 -4 0 464 c0 256 3 468 8 472 4 5 72 6
152 4 122 -4 151 -8 185 -25z m355 -443 l0 -470 -75 0 -75 0 0 470 0 470 75 0
75 0 0 -470z m627 315 c24 -82 46 -157 49 -165 5 -14 17 20 85 253 l20 67 68
0 c37 0 70 -3 73 -6 3 -3 -34 -125 -83 -272 l-89 -267 0 -197 0 -198 -75 0
-75 0 0 191 0 192 -84 256 c-46 141 -87 266 -91 279 -7 23 -6 23 76 20 l82 -3
44 -150z m1058 -80 c0 -126 -4 -283 -9 -348 l-8 -118 -57 3 -56 3 -7 60 c-10
89 -22 600 -15 619 6 14 19 16 79 14 l73 -3 0 -230z m-1305 -235 l0 -70 -150
0 -150 0 0 70 0 70 150 0 150 0 0 -70z m1300 -395 l0 -75 -70 0 -70 0 0 75 0
75 70 0 70 0 0 -75z m-2750 -358 c0 -32 2 -33 30 -29 49 7 70 -19 70 -90 0
-45 -3 -58 -15 -58 -11 0 -15 13 -15 54 0 62 -16 84 -49 66 -17 -9 -21 -20
-21 -65 0 -42 -3 -55 -15 -55 -12 0 -15 18 -15 105 0 87 3 105 15 105 10 0 15
-10 15 -33z m-526 11 c14 -6 28 -19 31 -28 6 -20 -13 -70 -27 -70 -5 0 3 -20
18 -45 23 -41 24 -45 7 -45 -11 0 -26 15 -38 37 -11 21 -28 39 -37 41 -15 3
-18 -4 -18 -37 0 -30 -4 -41 -15 -41 -12 0 -15 18 -15 100 l0 100 35 0 c19 0
45 -5 59 -12z m696 3 c0 -14 -18 -23 -30 -16 -6 4 -8 11 -5 16 8 12 35 12 35
0z m1880 -6 c0 -8 -7 -15 -15 -15 -8 0 -15 7 -15 15 0 8 7 15 15 15 8 0 15 -7
15 -15z m70 -20 c0 -8 9 -15 20 -15 11 0 20 -4 20 -10 0 -5 -9 -10 -20 -10
-17 0 -20 -7 -20 -51 0 -42 3 -52 20 -56 27 -7 25 -23 -3 -23 -35 0 -47 19
-47 76 0 31 -5 54 -12 56 -7 3 -5 12 8 26 22 26 34 28 34 7z m-2478 -32 c10
-9 18 -27 18 -40 0 -21 -4 -23 -49 -23 -44 0 -49 -2 -44 -20 6 -24 32 -33 68
-24 21 5 27 4 23 -7 -5 -16 -49 -23 -83 -15 -12 3 -28 19 -35 35 -30 73 47
144 102 94z m146 5 c7 -7 12 -39 12 -73 l0 -62 -50 -2 c-45 -1 -51 1 -62 25
-11 23 -10 29 11 45 13 11 36 19 52 19 27 0 29 2 19 21 -9 16 -17 19 -41 14
-27 -6 -38 3 -22 18 11 12 68 8 81 -5z m152 -4 c0 -10 -6 -13 -18 -10 -26 9
-54 -16 -54 -47 0 -38 20 -60 49 -52 16 4 23 1 23 -10 0 -10 -10 -15 -32 -15
-42 0 -54 8 -68 44 -20 54 13 106 67 106 23 0 33 -5 33 -16z m230 -59 c0 -60
-3 -75 -15 -75 -12 0 -15 15 -15 75 0 60 3 75 15 75 12 0 15 -15 15 -75z m147
63 c19 -16 18 -138 -2 -138 -10 0 -15 16 -17 62 -2 46 -7 63 -18 65 -29 5 -43
-15 -48 -71 -3 -39 -9 -56 -18 -56 -11 0 -14 18 -14 73 l0 74 52 1 c29 0 58
-4 65 -10z m173 2 c0 -5 -4 -10 -10 -10 -5 0 -7 -7 -4 -15 10 -24 -23 -65 -51
-65 -14 0 -25 -4 -25 -10 0 -5 12 -10 26 -10 38 0 64 -18 64 -44 0 -32 -23
-48 -69 -50 -58 -1 -89 33 -58 66 13 14 16 66 3 86 -4 7 -1 23 8 37 14 21 24
25 66 25 28 0 50 -4 50 -10z m124 -50 l20 -54 20 57 c12 31 27 57 33 57 18 0
17 -4 -23 -108 -28 -73 -41 -95 -61 -103 -25 -9 -43 -5 -43 12 0 5 9 9 20 9
35 0 42 33 19 92 -42 106 -41 100 -22 96 11 -2 25 -24 37 -58z m216 40 c24
-24 26 -77 4 -108 -18 -26 -74 -30 -97 -7 -33 32 -29 103 7 127 21 14 66 8 86
-12z m80 -40 c0 -66 12 -80 49 -60 17 9 21 20 21 65 0 42 3 55 15 55 12 0 15
-15 15 -74 l0 -73 -55 -2 c-65 -1 -75 11 -75 93 0 43 3 56 15 56 12 0 15 -13
15 -60z m160 48 c0 -9 3 -9 12 0 16 16 61 16 56 0 -3 -7 -15 -15 -29 -18 -21
-5 -24 -12 -27 -63 -2 -42 -7 -57 -17 -57 -12 0 -15 16 -15 75 0 43 4 75 10
75 6 0 10 -5 10 -12z m248 -6 c3 -8 -6 -12 -29 -10 -43 4 -50 -19 -10 -33 39
-14 56 -42 41 -69 -8 -15 -21 -20 -55 -20 -31 0 -45 4 -45 14 0 9 12 13 38 12
48 -1 49 20 2 43 -38 17 -49 43 -29 67 15 18 80 15 87 -4z m62 -30 c0 -59 20
-92 47 -76 13 8 19 26 21 68 2 41 7 56 17 56 12 0 15 -16 15 -73 l0 -74 -52 1
c-45 1 -54 4 -65 26 -19 37 -17 120 2 120 11 0 15 -12 15 -48z m246 37 c8 -7
14 -7 19 1 9 14 58 13 73 -2 7 -7 12 -39 12 -75 0 -49 -3 -63 -15 -63 -12 0
-15 13 -15 59 0 65 -9 78 -40 61 -16 -9 -20 -21 -20 -65 0 -42 -3 -55 -15 -55
-12 0 -15 13 -15 59 0 65 -9 78 -40 61 -16 -9 -20 -21 -20 -65 0 -42 -3 -55
-15 -55 -12 0 -15 15 -15 74 l0 73 47 1 c26 1 52 -3 59 -9z m250 0 c8 -7 14
-7 19 1 9 14 58 13 73 -2 7 -7 12 -39 12 -75 0 -49 -3 -63 -15 -63 -12 0 -15
13 -15 59 0 65 -9 78 -40 61 -16 -9 -20 -21 -20 -65 0 -42 -3 -55 -15 -55 -12
0 -15 13 -15 59 0 62 -10 76 -42 59 -14 -7 -18 -21 -18 -63 0 -42 -3 -55 -15
-55 -12 0 -15 15 -15 74 l0 73 47 1 c26 1 52 -3 59 -9z m174 -64 c0 -60 -3
-75 -15 -75 -12 0 -15 15 -15 75 0 60 3 75 15 75 12 0 15 -15 15 -75z"/>
<path d="M5325 3405 l-25 -24 0 -288 c0 -309 4 -332 50 -343 32 -8 76 6 86 28
10 21 18 512 9 570 -12 78 -71 107 -120 57z"/>
<path d="M2611 3350 c-1 -8 -15 -105 -30 -215 -16 -110 -28 -201 -26 -203 1
-2 29 -2 62 0 l58 3 -31 215 c-17 118 -32 208 -33 200z"/>
<path d="M3090 3291 l0 -131 45 0 c57 0 80 22 89 84 8 53 -1 128 -18 151 -6 9
-34 18 -63 22 l-53 6 0 -132z"/>
<path d="M3630 3091 l0 -331 50 0 c37 0 55 5 70 20 19 19 20 33 20 304 0 330
1 325 -88 334 l-52 5 0 -332z"/>
<path d="M2510 2300 c0 -26 3 -30 29 -30 30 0 45 19 35 45 -4 9 -19 15 -35 15
-26 0 -29 -4 -29 -30z"/>
<path d="M2674 2273 c-17 -17 -16 -18 15 -21 40 -4 48 2 31 23 -16 19 -25 19
-46 -2z"/>
<path d="M2820 2215 c-9 -11 -10 -19 -3 -26 15 -15 50 -2 56 21 4 16 0 20 -18
20 -12 0 -28 -7 -35 -15z"/>
<path d="M3493 2274 c-3 -8 2 -23 11 -32 14 -15 18 -15 31 -1 9 9 13 23 9 32
-8 21 -43 22 -51 1z"/>
<path d="M3484 2149 c-10 -17 11 -31 42 -27 18 2 30 10 32 21 3 13 -4 17 -32
17 -19 0 -38 -5 -42 -11z"/>
<path d="M3856 2274 c-17 -17 -19 -27 -10 -61 7 -27 29 -36 55 -23 26 15 26
75 0 90 -25 13 -27 13 -45 -6z"/>
</g>
</svg>
